# File created by Blade
# Date/Time:  Thu Sep 25 14:26:36 2014
# Frame Rate: 120.000 fps
#------------------------------------------------------
:FULLY-SPECIFIED
:DEGREES
1011
root 7.561899 25.676542 -2.064808 2.283934 84.568895 93.887270
Spine -42.990681 -5.563140 -0.895831
Head -102.925508 18.540415 18.295274
LeftShoulder -42.090175 54.157565 50.895895
LeftArm 131.462025 -35.545279 -166.769516
LeftForeArm 30.679656 -0.000000 67.795602
LeftHand -37.509769 -0.000000 115.324612
LeftHandThumb1 -26.253704 0.000000 33.147579
RightShoulder -15.762950 38.409546 -33.897585
RightArm 229.996658 115.673920 213.492631
RightForeArm -47.876527 -0.000000 58.942368
RightHand -12.319107 -0.000000 -68.905259
RightHandThumb1 -24.326973 -0.000000 -32.862282
LeftUpLeg 39.685575 -9.022786 19.004087
LeftLeg 57.622243 -0.000000 -0.000000
LeftFoot -13.180662 12.700189 -35.692899
LeftToeBase 9.308995 -0.000000 -0.000000
RightUpLeg 36.807176 12.096717 -25.489095
RightLeg 75.653518 -0.000000 -0.000000
RightFoot -21.079969 -32.452141 7.852183
RightToeBase 4.352522 -0.000000 -0.000000
1012
root 7.548177 25.676467 -2.024587 1.939705 84.527246 93.559239
Spine -42.946943 -5.532591 -0.892161
Head -102.840360 18.449215 18.371105
LeftShoulder -41.560132 53.160017 51.352251
LeftArm 131.595913 -36.227872 -166.325236
LeftForeArm 30.976707 0.000000 67.644384
LeftHand -37.402282 -0.000000 115.636628
LeftHandThumb1 -26.253704 0.000000 33.147579
RightShoulder -15.831192 38.522186 -34.106148
RightArm 229.796260 115.647548 213.659790
RightForeArm -48.017137 -0.000000 59.431739
RightHand -12.454609 0.000000 -68.458663
RightHandThumb1 -24.326973 -0.000000 -32.862282
LeftUpLeg 39.734562 -9.083829 18.993539
LeftLeg 57.505093 -0.000000 -0.000000
LeftFoot -13.066445 12.759255 -35.831839
LeftToeBase 9.421205 -0.000000 -0.000000
RightUpLeg 36.772867 12.050117 -25.482763
RightLeg 75.731987 -0.000000 -0.000000
RightFoot -21.185790 -32.346594 7.945013
RightToeBase 4.270328 -0.000000 -0.000000
1013
root 7.527113 25.669467 -1.982810 1.906537 84.511646 93.486022
Spine -42.935566 -5.412956 -1.019368
Head -102.921035 18.198461 18.259130
LeftShoulder -40.789035 52.060322 52.016701
LeftArm 131.724604 -37.073289 -166.001912
LeftForeArm 31.071820 -0.000000 67.520135
LeftHand -37.289709 -0.000000 115.942598
LeftHandThumb1 -26.253704 0.000000 33.147579
RightShoulder -16.232464 38.310897 -34.366409
RightArm 230.292273 115.558721 214.465488
RightForeArm -48.120949 -0.000000 59.920148
RightHand -12.510461 -0.000000 -67.937331
RightHandThumb1 -24.326973 -0.000000 -32.862282
LeftUpLeg 39.689238 -9.177281 18.920035
LeftLeg 57.417917 -0.000000 -0.000000
LeftFoot -12.980364 12.820742 -36.100943
LeftToeBase 9.529944 -0.000000 -0.000000
RightUpLeg 36.679037 11.931049 -25.507726
RightLeg 75.802271 -0.000000 -0.000000
RightFoot -21.205369 -32.399995 7.830667
RightToeBase 4.271577 -0.000000 -0.000000
1014
root 7.508986 25.665052 -1.941205 1.779757 84.465534 93.371904
Spine -42.900427 -5.326421 -1.079610
Head -102.959712 17.970266 18.194894
LeftShoulder -40.178647 51.430462 52.456979
LeftArm 131.969572 -37.660707 -165.990881
LeftForeArm 31.064682 0.000000 67.432868
LeftHand -37.148142 0.000000 116.236206
LeftHandThumb1 -26.253704 0.000000 33.147579
RightShoulder -16.298988 38.241535 -34.553216
RightArm 230.129522 115.386523 214.712119
RightForeArm -48.335533 -0.000000 60.551885
RightHand -12.735421 -0.000000 -67.309449
RightHandThumb1 -24.326973 -0.000000 -32.862282
LeftUpLeg 39.716233 -9.258935 18.833125
LeftLeg 57.312883 -0.000000 -0.000000
LeftFoot -12.880752 12.935413 -36.313157
LeftToeBase 9.614678 -0.000000 -0.000000
RightUpLeg 36.635884 11.879927 -25.487004
RightLeg 75.873686 -0.000000 -0.000000
RightFoot -21.262367 -32.434284 7.807126
RightToeBase 4.292277 -0.000000 -0.000000
1015
root 7.489194 25.657627 -1.898065 1.683023 84.440655 93.278336
Spine -42.863092 -5.352748 -1.052900
Head -103.007573 17.844938 18.148259
LeftShoulder -39.678864 50.708626 52.874822
LeftArm 132.063704 -38.459825 -165.823288
LeftForeArm 31.057560 -0.000000 67.398501
LeftHand -37.120918 0.000000 116.495758
LeftHandThumb1 -26.253704 0.000000 33.147579
RightShoulder -16.344000 38.227389 -34.688157
RightArm 230.543476 115.247043 215.488926
RightForeArm -48.683615 -0.000000 61.028614
RightHand -12.900999 -0.000000 -66.945051
RightHandThumb1 -24.326973 -0.000000 -32.862282
LeftUpLeg 39.716868 -9.380200 18.713494
LeftLeg 57.218749 -0.000000 -0.000000
LeftFoot -12.794364 13.057680 -36.635002
LeftToeBase 9.680387 -0.000000 -0.000000
RightUpLeg 36.581223 11.803268 -25.481403
RightLeg 75.939341 -0.000000 -0.000000
RightFoot -21.270411 -32.490712 7.685360
RightToeBase 4.334091 -0.000000 -0.000000
1016
root 7.465104 25.649432 -1.852547 1.546937 84.408812 93.131266
Spine -42.829208 -5.272698 -1.083427
Head -103.110970 17.632837 17.969086
LeftShoulder -38.999097 49.749931 53.429928
LeftArm 132.135141 -39.424585 -165.596322
LeftForeArm 31.074228 -0.000000 67.338414
LeftHand -37.070011 -0.000000 116.716990
LeftHandThumb1 -26.253704 0.000000 33.147579
RightShoulder -16.532258 38.204164 -34.906506
RightArm 230.622958 115.177621 215.819474
RightForeArm -48.967892 -0.000000 61.440638
RightHand -12.840859 0.000000 -66.412363
RightHandThumb1 -24.326973 -0.000000 -32.862282
LeftUpLeg 39.711174 -9.503945 18.577596
LeftLeg 57.109023 -0.000000 -0.000000
LeftFoot -12.672122 13.218906 -36.924029
LeftToeBase 9.663408 -0.000000 -0.000000
RightUpLeg 36.503536 11.714216 -25.463224
RightLeg 76.021416 -0.000000 -0.000000
RightFoot -21.325211 -32.531266 7.668403
RightToeBase 4.309959 -0.000000 -0.000000
1017
root 7.442445 25.639361 -1.806829 1.657076 84.391043 93.217956
Spine -42.820027 -5.157264 -1.129913
Head -103.170459 17.354234 17.711586
LeftShoulder -38.508496 48.962823 53.538182
LeftArm 132.503588 -40.086934 -165.440245
LeftForeArm 31.080826 -0.000000 67.258067
LeftHand -36.984247 -0.000000 117.123464
LeftHandThumb1 -26.253704 0.000000 33.147579
RightShoulder -16.810208 38.233621 -35.312662
RightArm 230.745576 115.184343 216.264421
RightForeArm -49.291414 -0.000000 61.790750
RightHand -12.841082 -0.000000 -66.332028
RightHandThumb1 -24.326973 -0.000000 -32.862282
LeftUpLeg 39.673928 -9.635927 18.426066
LeftLeg 57.013406 -0.000000 -0.000000
LeftFoot -12.571165 13.391266 -37.245103
LeftToeBase 9.648669 -0.000000 -0.000000
RightUpLeg 36.419412 11.600530 -25.480086
RightLeg 76.117665 -0.000000 -0.000000
RightFoot -21.142469 -32.712059 7.343732
RightToeBase 3.978083 -0.000000 -0.000000
